<?xml version="1.0" encoding="utf-8"?>
<!-- Generator: Adobe Illustrator 15.0.0, SVG Export Plug-In . SVG Version: 6.00 Build 0)  -->
<!DOCTYPE svg PUBLIC "-//W3C//DTD SVG 1.1//EN" "http://www.w3.org/Graphics/SVG/1.1/DTD/svg11.dtd" [
	<!ENTITY ns_extend "http://ns.adobe.com/Extensibility/1.0/">
	<!ENTITY ns_ai "http://ns.adobe.com/AdobeIllustrator/10.0/">
	<!ENTITY ns_graphs "http://ns.adobe.com/Graphs/1.0/">
	<!ENTITY ns_vars "http://ns.adobe.com/Variables/1.0/">
	<!ENTITY ns_imrep "http://ns.adobe.com/ImageReplacement/1.0/">
	<!ENTITY ns_sfw "http://ns.adobe.com/SaveForWeb/1.0/">
	<!ENTITY ns_custom "http://ns.adobe.com/GenericCustomNamespace/1.0/">
	<!ENTITY ns_adobe_xpath "http://ns.adobe.com/XPath/1.0/">
]>
<svg version="1.1" id="图层_1" xmlns:x="&ns_extend;" xmlns:i="&ns_ai;" xmlns:graph="&ns_graphs;"
	 xmlns="http://www.w3.org/2000/svg" xmlns:xlink="http://www.w3.org/1999/xlink" x="0px" y="0px" width="564.79px"
	 height="482.248px" viewBox="0 0 564.79 482.248" enable-background="new 0 0 564.79 482.248" xml:space="preserve">
<metadata>
	<sfw  xmlns="&ns_sfw;">
		<slices></slices>
		<sliceSourceBounds  height="451.589" width="533.565" x="30.435" y="194.705" bottomLeftOrigin="true"></sliceSourceBounds>
	</sfw>
</metadata>
<path d="M157.168,94.414h6.785v5.089h-6.785V94.414z"/>
<radialGradient id="SVGID_1_" cx="161.126" cy="87.6311" r="9.0452" gradientUnits="userSpaceOnUse">
	<stop  offset="0.2658" style="stop-color:#67B567"/>
	<stop  offset="0.8633" style="stop-color:#2C4D2C"/>
	<stop  offset="1" style="stop-color:#2E522E"/>
</radialGradient>
<circle fill="url(#SVGID_1_)" stroke="#142D14" cx="161.126" cy="87.631" r="9.045"/>
<linearGradient id="SVGID_2_" gradientUnits="userSpaceOnUse" x1="387.0786" y1="391.1355" x2="201.458" y2="69.6312">
	<stop  offset="0" style="stop-color:#1D331D"/>
	<stop  offset="0.7" style="stop-color:#427542"/>
</linearGradient>
<path fill="url(#SVGID_2_)" stroke="#142D14" d="M112.506,120.987H476.03v218.792H112.506V120.987z"/>
<linearGradient id="SVGID_3_" gradientUnits="userSpaceOnUse" x1="528.2378" y1="348.1404" x2="461.1357" y2="231.9162">
	<stop  offset="0" style="stop-color:#090F09"/>
	<stop  offset="1" style="stop-color:#1D331D"/>
</linearGradient>
<path fill="url(#SVGID_3_)" stroke="#142D14" d="M476.03,223.316h37.313V356.74H476.03V223.316z"/>
<linearGradient id="SVGID_4_" gradientUnits="userSpaceOnUse" x1="442.5884" y1="315.2507" x2="300.853" y2="69.7579">
	<stop  offset="0" style="stop-color:#999999"/>
	<stop  offset="0.8035" style="stop-color:#EDEDED"/>
	<stop  offset="1" style="stop-color:#D9D9D9"/>
</linearGradient>
<path fill="url(#SVGID_4_)" stroke="#353535" d="M264.021,91.023H479.42v202.962H264.021V91.023z"/>
<path fill="none" stroke="#FFFFFF" stroke-width="2" d="M403.663,200.136h54.275"/>
<path fill="#E5E5E5" d="M444.37,145.862h31.66v24.311h-31.66V145.862z"/>
<linearGradient id="SVGID_5_" gradientUnits="userSpaceOnUse" x1="391.7505" y1="133.8977" x2="357.9102" y2="75.2845">
	<stop  offset="0" style="stop-color:#3B3B3B"/>
	<stop  offset="1" style="stop-color:#000000"/>
</linearGradient>
<path fill="url(#SVGID_5_)" stroke="#020202" d="M322.817,95.545h104.025v18.093H322.817V95.545z"/>
<linearGradient id="SVGID_6_" gradientUnits="userSpaceOnUse" x1="194.3989" y1="143.8831" x2="155.5566" y2="76.6062">
	<stop  offset="0" style="stop-color:#090F09"/>
	<stop  offset="1" style="stop-color:#1D331D"/>
</linearGradient>
<path fill="url(#SVGID_6_)" stroke="#142D14" d="M115.898,99.503h118.159v21.483H115.898V99.503z"/>
<linearGradient id="SVGID_7_" gradientUnits="userSpaceOnUse" x1="339.3853" y1="545.3103" x2="237.8432" y2="369.4344">
	<stop  offset="0" style="stop-color:#1D331D"/>
	<stop  offset="0.7" style="stop-color:#427542"/>
</linearGradient>
<path fill="url(#SVGID_7_)" stroke="#142D14" d="M101.199,448.326H476.03v18.093H101.199V448.326z"/>
<linearGradient id="SVGID_8_" gradientUnits="userSpaceOnUse" x1="553.2983" y1="358.9968" x2="486.3901" y2="243.1084">
	<stop  offset="0" style="stop-color:#1D331D"/>
	<stop  offset="0.7" style="stop-color:#427542"/>
</linearGradient>
<path fill="url(#SVGID_8_)" stroke="#142D14" d="M491.293,240.277h57.102v121.551h-57.102V240.277L491.293,240.277z"/>
<linearGradient id="SVGID_9_" gradientUnits="userSpaceOnUse" x1="360.3687" y1="105.5754" x2="313.5361" y2="24.4591">
	<stop  offset="0" style="stop-color:#1D331D"/>
	<stop  offset="0.7" style="stop-color:#427542"/>
</linearGradient>
<path fill="url(#SVGID_9_)" stroke="#142D14" d="M288.331,39.01h97.242v52.013h-97.242V39.01z"/>
<radialGradient id="SVGID_10_" cx="343.7349" cy="41.2708" r="25.4412" gradientUnits="userSpaceOnUse">
	<stop  offset="0.2658" style="stop-color:#67B567"/>
	<stop  offset="0.8633" style="stop-color:#2C4D2C"/>
	<stop  offset="1" style="stop-color:#2E522E"/>
</radialGradient>
<circle fill="url(#SVGID_10_)" stroke="#142D14" cx="343.735" cy="41.271" r="25.441"/>
<linearGradient id="SVGID_11_" gradientUnits="userSpaceOnUse" x1="414.4087" y1="149.7004" x2="400.8369" y2="126.1934">
	<stop  offset="0" style="stop-color:#000000"/>
	<stop  offset="1" style="stop-color:#3B3B3B"/>
</linearGradient>
<circle fill="url(#SVGID_11_)" stroke="#020202" cx="407.622" cy="137.947" r="13.569"/>
<linearGradient id="SVGID_12_" gradientUnits="userSpaceOnUse" x1="404.7935" y1="154.908" x2="426.8423" y2="154.908">
	<stop  offset="0" style="stop-color:#3B3B3B"/>
	<stop  offset="1" style="stop-color:#000000"/>
</linearGradient>
<path fill="url(#SVGID_12_)" stroke="#020202" d="M404.793,137.948l20.354,34.486l1.695-1.131l-18.656-33.922L404.793,137.948z"/>
<path fill="#CC9999" d="M444.37,145.862h31.66v6.22h-31.66V145.862z"/>
<path fill="#7F0000" d="M349.389,224.447h5.088v5.653h-5.088V224.447z"/>
<path fill="#7F0000" d="M349.389,206.355h5.088v5.089h-5.088V206.355z"/>
<path d="M306.422,206.355h5.654v5.089h-5.654V206.355z"/>
<path d="M306.422,188.264h5.654v5.088h-5.654V188.264z"/>
<path fill="#7F0000" d="M349.389,188.264h5.088v5.088h-5.088V188.264z"/>
<path fill="#7F0000" d="M349.389,170.172h5.088v5.089h-5.088V170.172z"/>
<path d="M306.422,170.172h5.654v5.089h-5.654V170.172z"/>
<path fill="#333333" d="M379.354,200.136h11.307v6.219h-11.307V200.136z"/>
<path fill="#333333" d="M379.354,224.447h11.307v5.653h-11.307V224.447z"/>
<path fill="#4C4C4C" d="M426.842,188.264h6.785v5.088h-6.785V188.264z"/>
<path fill="#4C4C4C" d="M415.536,188.264h6.219v5.088h-6.219V188.264z"/>
<path fill="#4C4C4C" d="M439.846,188.264h5.088v5.088h-5.088V188.264z"/>
<path fill="none" stroke="#003300" stroke-width="2" d="M491.293,251.018h57.102"/>
<linearGradient id="SVGID_13_" gradientUnits="userSpaceOnUse" x1="356.0415" y1="502.7751" x2="220.0556" y2="267.2408">
	<stop  offset="0" style="stop-color:#1D331D"/>
	<stop  offset="0.7" style="stop-color:#427542"/>
</linearGradient>
<path fill="url(#SVGID_13_)" stroke="#142D14" d="M94.414,339.779h387.268v90.457H94.414V339.779z"/>
<path d="M306.422,224.447h5.654v5.653h-5.654V224.447z"/>
<linearGradient id="SVGID_14_" gradientUnits="userSpaceOnUse" x1="137.3809" y1="318.8611" x2="166.7788" y2="318.8611">
	<stop  offset="0" style="stop-color:#1D331D"/>
	<stop  offset="0.5" style="stop-color:#427542"/>
	<stop  offset="1" style="stop-color:#1D331D"/>
</linearGradient>
<path fill="url(#SVGID_14_)" stroke="#142D14" d="M137.381,240.277h29.398v157.168h-29.398V240.277"/>
<linearGradient id="SVGID_15_" gradientUnits="userSpaceOnUse" x1="335.7817" y1="529.2996" x2="236.3603" y2="357.0967">
	<stop  offset="0" style="stop-color:#090F09"/>
	<stop  offset="1" style="stop-color:#1D331D"/>
</linearGradient>
<path fill="url(#SVGID_15_)" stroke="#142D14" d="M101.199,448.326l8.48-18.091h356.739l9.611,18.091H101.199z"/>
<path fill="none" stroke="#99CC99" stroke-width="2" d="M357.87,424.017V390.66h87.064"/>
<path fill="none" stroke="#003300" stroke-width="2" d="M357.87,424.017h87.064V390.66"/>
<path fill="#E5F2E5" d="M140.208,296.812h23.745v15.265h-23.745V296.812z"/>
<linearGradient id="SVGID_16_" gradientUnits="userSpaceOnUse" x1="92.0425" y1="317.6726" x2="36.2939" y2="221.1133">
	<stop  offset="0" style="stop-color:#1D331D"/>
	<stop  offset="0.7" style="stop-color:#427542"/>
</linearGradient>
<path fill="url(#SVGID_16_)" stroke="#142D14" d="M15.83,232.927h96.676v72.931H15.83V232.927z"/>
<linearGradient id="SVGID_17_" gradientUnits="userSpaceOnUse" x1="84.9473" y1="248.8396" x2="58.0879" y2="202.3178">
	<stop  offset="0" style="stop-color:#090F09"/>
	<stop  offset="1" style="stop-color:#1D331D"/>
</linearGradient>
<path fill="url(#SVGID_17_)" stroke="#142D14" d="M30.529,218.228h81.977v14.699H30.529V218.228z"/>
<circle fill="none" stroke="#99CC99" stroke-width="2" cx="344.301" cy="41.271" r="16.395"/>
<path fill="#E5F2E5" d="M130.597,127.771h24.875v14.699h-24.875V127.771z"/>
<linearGradient id="SVGID_18_" gradientUnits="userSpaceOnUse" x1="48.6211" y1="259.2156" x2="79.7148" y2="259.2156">
	<stop  offset="0" style="stop-color:#090F09"/>
	<stop  offset="1" style="stop-color:#1D331D"/>
</linearGradient>
<path fill="url(#SVGID_18_)" stroke="#142D14" d="M48.621,251.018h31.094v16.396H48.621V251.018z"/>
<linearGradient id="SVGID_19_" gradientUnits="userSpaceOnUse" x1="195.6128" y1="267.4128" x2="195.6128" y2="251.0173">
	<stop  offset="0" style="stop-color:#999999"/>
	<stop  offset="0.5" style="stop-color:#EDEDED"/>
	<stop  offset="1" style="stop-color:#999999"/>
</linearGradient>
<rect x="166.78" y="251.017" fill="url(#SVGID_19_)" stroke="#353535" width="57.666" height="16.396"/>
<linearGradient id="SVGID_20_" gradientUnits="userSpaceOnUse" x1="221.3369" y1="412.1443" x2="221.3369" y2="397.4451">
	<stop  offset="0" style="stop-color:#999999"/>
	<stop  offset="0.5" style="stop-color:#EDEDED"/>
	<stop  offset="1" style="stop-color:#999999"/>
</linearGradient>
<rect x="124.378" y="397.445" fill="url(#SVGID_20_)" stroke="#353535" width="193.917" height="14.699"/>
<linearGradient id="SVGID_21_" gradientUnits="userSpaceOnUse" x1="209.7471" y1="328.4285" x2="224.4458" y2="328.4285">
	<stop  offset="0" style="stop-color:#999999"/>
	<stop  offset="0.5" style="stop-color:#EDEDED"/>
	<stop  offset="1" style="stop-color:#999999"/>
</linearGradient>
<polygon fill="url(#SVGID_21_)" points="224.446,397.444 216.895,405.444 209.747,397.444 209.747,267.413 224.446,251.413 "/>
<line fill="none" stroke="#000000" x1="209.747" y1="267.413" x2="209.747" y2="397.445"/>
<line fill="none" stroke="#000000" x1="224.446" y1="251.017" x2="224.446" y2="397.444"/>
</svg>
