<?xml version="1.0" encoding="utf-8"?>
<!-- Generator: Adobe Illustrator 15.0.0, SVG Export Plug-In . SVG Version: 6.00 Build 0)  -->
<!DOCTYPE svg PUBLIC "-//W3C//DTD SVG 1.1//EN" "http://www.w3.org/Graphics/SVG/1.1/DTD/svg11.dtd" [
	<!ENTITY ns_extend "http://ns.adobe.com/Extensibility/1.0/">
	<!ENTITY ns_ai "http://ns.adobe.com/AdobeIllustrator/10.0/">
	<!ENTITY ns_graphs "http://ns.adobe.com/Graphs/1.0/">
	<!ENTITY ns_vars "http://ns.adobe.com/Variables/1.0/">
	<!ENTITY ns_imrep "http://ns.adobe.com/ImageReplacement/1.0/">
	<!ENTITY ns_sfw "http://ns.adobe.com/SaveForWeb/1.0/">
	<!ENTITY ns_custom "http://ns.adobe.com/GenericCustomNamespace/1.0/">
	<!ENTITY ns_adobe_xpath "http://ns.adobe.com/XPath/1.0/">
]>
<svg version="1.1" id="图层_1" xmlns:x="&ns_extend;" xmlns:i="&ns_ai;" xmlns:graph="&ns_graphs;"
	 xmlns="http://www.w3.org/2000/svg" xmlns:xlink="http://www.w3.org/1999/xlink" x="0px" y="0px" width="618.539px"
	 height="482.248px" viewBox="0 0 618.539 482.248" enable-background="new 0 0 618.539 482.248" xml:space="preserve">
<metadata>
	<sfw  xmlns="&ns_sfw;">
		<slices></slices>
		<sliceSourceBounds  y="196.598" x="5.191" width="584.616" height="447.803" bottomLeftOrigin="true"></sliceSourceBounds>
	</sfw>
</metadata>
<linearGradient id="SVGID_1_" gradientUnits="userSpaceOnUse" x1="460.3193" y1="486.0876" x2="151.2309" y2="-49.2691">
	<stop  offset="0" style="stop-color:#000000"/>
	<stop  offset="1" style="stop-color:#3B3B3B"/>
</linearGradient>
<path fill="url(#SVGID_1_)" stroke="#020202" d="M17.473,27.956h576.603v380.907H17.473V27.956z"/>
<linearGradient id="SVGID_2_" gradientUnits="userSpaceOnUse" x1="17.4731" y1="214.9153" x2="601.0645" y2="214.9153">
	<stop  offset="0" style="stop-color:#3B3B3B"/>
	<stop  offset="1" style="stop-color:#000000"/>
</linearGradient>
<path fill="url(#SVGID_2_)" stroke="#020202" d="M601.064,408.864H17.473V20.967h250.443v196.86l333.147,108.331L601.064,408.864
	L601.064,408.864z"/>
<linearGradient id="SVGID_3_" gradientUnits="userSpaceOnUse" x1="392.5557" y1="432.1589" x2="461.2803" y2="432.1589">
	<stop  offset="0" style="stop-color:#262626"/>
	<stop  offset="0.3115" style="stop-color:#525252"/>
	<stop  offset="0.6814" style="stop-color:#000000"/>
	<stop  offset="1" style="stop-color:#2B2B2B"/>
</linearGradient>
<path fill="url(#SVGID_3_)" stroke="#0C0C0C" stroke-width="0.5" d="M392.556,408.864v4.659v4.659v4.659v4.658v5.824v4.66v4.659
	v4.659l3.494,3.494l6.988,2.33l11.647,1.164l12.814,1.165l11.648-1.165l11.647-1.164l6.988-2.33l3.496-3.494v-38.439
	L392.556,408.864L392.556,408.864z"/>
<linearGradient id="SVGID_4_" gradientUnits="userSpaceOnUse" x1="101.3428" y1="241.1248" x2="239.96" y2="241.1248">
	<stop  offset="0" style="stop-color:#262626"/>
	<stop  offset="0.3115" style="stop-color:#525252"/>
	<stop  offset="0.6814" style="stop-color:#000000"/>
	<stop  offset="1" style="stop-color:#2B2B2B"/>
</linearGradient>
<path fill="url(#SVGID_4_)" stroke="#0C0C0C" stroke-width="0.5" d="M101.343,464.776v-55.912H129.3V20.967h-27.957v-3.493H239.96
	v3.493h-27.957v387.896h27.957v55.912L101.343,464.776L101.343,464.776z"/>
<linearGradient id="SVGID_5_" gradientUnits="userSpaceOnUse" x1="274.9063" y1="89.6941" x2="510.207" y2="89.6941">
	<stop  offset="0" style="stop-color:#1CA339"/>
	<stop  offset="1" style="stop-color:#008504"/>
</linearGradient>
<path fill="url(#SVGID_5_)" d="M274.906,68.726h235.301v41.936H274.906V68.726z"/>
<linearGradient id="SVGID_6_" gradientUnits="userSpaceOnUse" x1="274.9063" y1="83.2869" x2="526.5137" y2="83.2869">
	<stop  offset="0" style="stop-color:#006633"/>
	<stop  offset="1" style="stop-color:#004724"/>
</linearGradient>
<polygon fill="url(#SVGID_6_)" points="526.513,55.913 510.206,55.913 274.906,55.913 274.906,88.528 493.899,88.528 
	493.899,110.661 510.207,110.661 526.514,110.661 "/>
<linearGradient id="SVGID_7_" gradientUnits="userSpaceOnUse" x1="129.2988" y1="360.5222" x2="212.0029" y2="360.5222">
	<stop  offset="0" style="stop-color:#CCA000"/>
	<stop  offset="1" style="stop-color:#9E5F00"/>
</linearGradient>
<path fill="url(#SVGID_7_)" stroke="#190101" d="M129.299,333.148h82.704v54.748h-82.704V333.148L129.299,333.148z"/>
<g>
	<linearGradient id="SVGID_8_" gradientUnits="userSpaceOnUse" x1="487.4932" y1="267.908" x2="470.0171" y2="237.6385">
		<stop  offset="0" style="stop-color:#000000"/>
		<stop  offset="1" style="stop-color:#3B3B3B"/>
	</linearGradient>
	<circle fill="url(#SVGID_8_)" stroke="#020202" cx="478.755" cy="252.773" r="17.473"/>
	<linearGradient id="SVGID_9_" gradientUnits="userSpaceOnUse" x1="487.4932" y1="191.0276" x2="470.0171" y2="160.7581">
		<stop  offset="0" style="stop-color:#000000"/>
		<stop  offset="1" style="stop-color:#3B3B3B"/>
	</linearGradient>
	<circle fill="url(#SVGID_9_)" stroke="#020202" cx="478.755" cy="175.893" r="17.473"/>
	<linearGradient id="SVGID_10_" gradientUnits="userSpaceOnUse" x1="357.6113" y1="226.4407" x2="343.6309" y2="202.2258">
		<stop  offset="0" style="stop-color:#000000"/>
		<stop  offset="1" style="stop-color:#3B3B3B"/>
	</linearGradient>
	<circle fill="url(#SVGID_10_)" stroke="#020202" cx="350.621" cy="214.333" r="13.978"/>
	<linearGradient id="SVGID_11_" gradientUnits="userSpaceOnUse" x1="329.0742" y1="197.4753" x2="316.2588" y2="175.2784">
		<stop  offset="0" style="stop-color:#000000"/>
		<stop  offset="1" style="stop-color:#3B3B3B"/>
	</linearGradient>
	<circle fill="url(#SVGID_11_)" stroke="#020202" cx="322.666" cy="186.376" r="12.813"/>
	<linearGradient id="SVGID_12_" gradientUnits="userSpaceOnUse" x1="357.6113" y1="171.6926" x2="343.6309" y2="147.4778">
		<stop  offset="0" style="stop-color:#000000"/>
		<stop  offset="1" style="stop-color:#3B3B3B"/>
	</linearGradient>
	<circle fill="url(#SVGID_12_)" stroke="#020202" cx="350.621" cy="159.585" r="13.978"/>
	<linearGradient id="SVGID_13_" gradientUnits="userSpaceOnUse" x1="385.5684" y1="198.4851" x2="371.5869" y2="174.2685">
		<stop  offset="0" style="stop-color:#000000"/>
		<stop  offset="1" style="stop-color:#3B3B3B"/>
	</linearGradient>
	<circle fill="url(#SVGID_13_)" stroke="#020202" cx="378.578" cy="186.376" r="13.979"/>
</g>
<linearGradient id="SVGID_14_" gradientUnits="userSpaceOnUse" x1="17.4731" y1="360.5222" x2="90.8589" y2="360.5222">
	<stop  offset="0" style="stop-color:#3B3B3B"/>
	<stop  offset="1" style="stop-color:#000000"/>
</linearGradient>
<path fill="url(#SVGID_14_)" stroke="#020202" d="M66.397,384.402H18.638l-1.165-47.76h48.924l9.319,2.33l8.154,4.658l4.659,6.989
	l2.33,9.319l-2.33,9.317l-4.659,8.154l-8.154,4.659L66.397,384.402z"/>
<linearGradient id="SVGID_15_" gradientUnits="userSpaceOnUse" x1="17.4731" y1="89.6941" x2="90.8589" y2="89.6941">
	<stop  offset="0" style="stop-color:#3B3B3B"/>
	<stop  offset="1" style="stop-color:#000000"/>
</linearGradient>
<path fill="url(#SVGID_15_)" stroke="#020202" d="M66.397,114.156H18.638l-1.165-48.924h48.924l9.319,2.33l8.154,4.659l4.659,8.153
	l2.33,9.318l-2.33,9.318l-4.659,8.153l-8.154,4.659L66.397,114.156z"/>
<linearGradient id="SVGID_16_" gradientUnits="userSpaceOnUse" x1="520.6904" y1="89.6941" x2="594.0762" y2="89.6941">
	<stop  offset="0" style="stop-color:#3B3B3B"/>
	<stop  offset="1" style="stop-color:#000000"/>
</linearGradient>
<path fill="url(#SVGID_16_)" stroke="#020202" d="M545.152,65.232h47.758l1.166,48.924h-48.924l-9.318-2.33l-8.154-4.659
	l-4.659-8.153l-2.33-9.318l2.33-9.318l4.659-8.153l8.154-4.659L545.152,65.232z"/>
<linearGradient id="SVGID_17_" gradientUnits="userSpaceOnUse" x1="527.6797" y1="360.5222" x2="601.0645" y2="360.5222">
	<stop  offset="0" style="stop-color:#3B3B3B"/>
	<stop  offset="1" style="stop-color:#000000"/>
</linearGradient>
<path fill="url(#SVGID_17_)" stroke="#020202" d="M552.14,336.642H599.9l1.164,47.76H552.14l-9.317-2.33l-8.154-4.659l-4.658-8.153
	l-2.33-9.318l2.33-9.319l4.658-6.989l8.154-4.658L552.14,336.642z"/>
<g>
	<linearGradient id="SVGID_18_" gradientUnits="userSpaceOnUse" x1="55.9121" y1="341.7791" x2="76.8823" y2="378.1005">
		<stop  offset="0" style="stop-color:#A8A8A8"/>
		<stop  offset="1" style="stop-color:#666666"/>
	</linearGradient>
	<circle fill="url(#SVGID_18_)" stroke="#353535" cx="66.397" cy="359.939" r="20.967"/>
	<linearGradient id="SVGID_19_" gradientUnits="userSpaceOnUse" x1="55.9121" y1="71.533" x2="76.8833" y2="107.8561">
		<stop  offset="0" style="stop-color:#A8A8A8"/>
		<stop  offset="1" style="stop-color:#666666"/>
	</linearGradient>
	<circle fill="url(#SVGID_19_)" stroke="#353535" cx="66.397" cy="89.694" r="20.968"/>
	<linearGradient id="SVGID_20_" gradientUnits="userSpaceOnUse" x1="539.1553" y1="73.5417" x2="558.9614" y2="107.847">
		<stop  offset="0" style="stop-color:#A8A8A8"/>
		<stop  offset="1" style="stop-color:#666666"/>
	</linearGradient>
	<circle fill="url(#SVGID_20_)" stroke="#353535" cx="549.058" cy="90.694" r="19.803"/>
	<linearGradient id="SVGID_21_" gradientUnits="userSpaceOnUse" x1="546.1563" y1="343.7878" x2="565.9614" y2="378.0914">
		<stop  offset="0" style="stop-color:#A8A8A8"/>
		<stop  offset="1" style="stop-color:#666666"/>
	</linearGradient>
	<circle fill="url(#SVGID_21_)" stroke="#353535" cx="556.058" cy="360.939" r="19.802"/>
	<linearGradient id="SVGID_22_" gradientUnits="userSpaceOnUse" x1="59.4067" y1="347.8318" x2="73.3872" y2="372.0467">
		<stop  offset="0" style="stop-color:#D9D9D9"/>
		<stop  offset="0.1965" style="stop-color:#EDEDED"/>
		<stop  offset="1" style="stop-color:#999999"/>
	</linearGradient>
	<circle fill="url(#SVGID_22_)" stroke="#353535" cx="66.397" cy="359.939" r="13.978"/>
	<linearGradient id="SVGID_23_" gradientUnits="userSpaceOnUse" x1="59.4067" y1="77.5862" x2="73.3882" y2="101.8028">
		<stop  offset="0" style="stop-color:#D9D9D9"/>
		<stop  offset="0.1965" style="stop-color:#EDEDED"/>
		<stop  offset="1" style="stop-color:#999999"/>
	</linearGradient>
	<circle fill="url(#SVGID_23_)" stroke="#353535" cx="66.397" cy="89.694" r="13.979"/>
	<linearGradient id="SVGID_24_" gradientUnits="userSpaceOnUse" x1="542.0674" y1="78.5857" x2="556.0488" y2="102.8023">
		<stop  offset="0" style="stop-color:#D9D9D9"/>
		<stop  offset="0.1965" style="stop-color:#EDEDED"/>
		<stop  offset="1" style="stop-color:#999999"/>
	</linearGradient>
	<circle fill="url(#SVGID_24_)" stroke="#353535" cx="549.058" cy="90.694" r="13.979"/>
	<linearGradient id="SVGID_25_" gradientUnits="userSpaceOnUse" x1="549.0684" y1="348.8318" x2="563.0488" y2="373.0467">
		<stop  offset="0" style="stop-color:#D9D9D9"/>
		<stop  offset="0.1965" style="stop-color:#EDEDED"/>
		<stop  offset="1" style="stop-color:#999999"/>
	</linearGradient>
	<circle fill="url(#SVGID_25_)" stroke="#353535" cx="556.058" cy="360.939" r="13.978"/>
</g>
<linearGradient id="SVGID_26_" gradientUnits="userSpaceOnUse" x1="484.0186" y1="261.6931" x2="472.7871" y2="242.2397">
	<stop  offset="0" style="stop-color:#999999"/>
	<stop  offset="0.8035" style="stop-color:#EDEDED"/>
	<stop  offset="1" style="stop-color:#D9D9D9"/>
</linearGradient>
<path fill="url(#SVGID_26_)" stroke="#353535" d="M475.259,259.762h10.484v-20.969h-6.988v13.979h-3.496v-6.989l-9.317,10.484
	l9.317,10.482V259.762z"/>
<linearGradient id="SVGID_27_" gradientUnits="userSpaceOnUse" x1="492.8877" y1="182.7937" x2="485.5923" y2="170.1577">
	<stop  offset="0" style="stop-color:#999999"/>
	<stop  offset="0.8035" style="stop-color:#EDEDED"/>
	<stop  offset="1" style="stop-color:#D9D9D9"/>
</linearGradient>
<path fill="url(#SVGID_27_)" stroke="#353535" d="M485.744,182.882v-12.813h6.99v2.329h-4.66v6.989h4.66v3.494H485.744
	L485.744,182.882z"/>
<linearGradient id="SVGID_28_" gradientUnits="userSpaceOnUse" x1="481.4248" y1="180.5168" x2="476.0854" y2="171.2688">
	<stop  offset="0" style="stop-color:#999999"/>
	<stop  offset="0.8035" style="stop-color:#EDEDED"/>
	<stop  offset="1" style="stop-color:#D9D9D9"/>
</linearGradient>
<ellipse fill="url(#SVGID_28_)" stroke="#353535" cx="478.755" cy="175.893" rx="3.494" ry="5.824"/>
<linearGradient id="SVGID_29_" gradientUnits="userSpaceOnUse" x1="472.1055" y1="180.5178" x2="466.7656" y2="171.2689">
	<stop  offset="0" style="stop-color:#999999"/>
	<stop  offset="0.8035" style="stop-color:#EDEDED"/>
	<stop  offset="1" style="stop-color:#D9D9D9"/>
</linearGradient>
<ellipse fill="url(#SVGID_29_)" stroke="#353535" cx="469.435" cy="175.893" rx="3.496" ry="5.824"/>
<linearGradient id="SVGID_30_" gradientUnits="userSpaceOnUse" x1="381.0313" y1="193.4255" x2="372.457" y2="178.5746">
	<stop  offset="0" style="stop-color:#999999"/>
	<stop  offset="0.8035" style="stop-color:#EDEDED"/>
	<stop  offset="1" style="stop-color:#D9D9D9"/>
</linearGradient>
<path fill="url(#SVGID_30_)" stroke="#353535" d="M375.083,177.058l10.482,10.482l-10.482,9.318V177.058z"/>
<linearGradient id="SVGID_31_" gradientUnits="userSpaceOnUse" x1="353.2422" y1="167.6184" x2="346.082" y2="155.2167">
	<stop  offset="0" style="stop-color:#999999"/>
	<stop  offset="0.8035" style="stop-color:#EDEDED"/>
	<stop  offset="1" style="stop-color:#D9D9D9"/>
</linearGradient>
<path fill="url(#SVGID_31_)" stroke="#353535" d="M340.138,163.079l10.482-10.482l10.484,10.482H340.138z"/>
<linearGradient id="SVGID_32_" gradientUnits="userSpaceOnUse" x1="328.5332" y1="195.4905" x2="319.9595" y2="180.6403">
	<stop  offset="0" style="stop-color:#999999"/>
	<stop  offset="0.8035" style="stop-color:#EDEDED"/>
	<stop  offset="1" style="stop-color:#D9D9D9"/>
</linearGradient>
<path fill="url(#SVGID_32_)" stroke="#353535" d="M326.16,196.86l-10.484-9.318l10.484-10.482V196.86z"/>
<linearGradient id="SVGID_33_" gradientUnits="userSpaceOnUse" x1="355.1611" y1="218.7" x2="348.0015" y2="206.299">
	<stop  offset="0" style="stop-color:#999999"/>
	<stop  offset="0.8035" style="stop-color:#EDEDED"/>
	<stop  offset="1" style="stop-color:#D9D9D9"/>
</linearGradient>
<path fill="url(#SVGID_33_)" stroke="#353535" d="M361.105,210.838l-10.484,10.483l-10.482-10.483H361.105z"/>
</svg>
